<?xml version="1.0" standalone="no"?>
<!DOCTYPE svg PUBLIC "-//W3C//DTD SVG 20010904//EN"
 "http://www.w3.org/TR/2001/REC-SVG-20010904/DTD/svg10.dtd">
<svg version="1.0" xmlns="http://www.w3.org/2000/svg"
 width="400.000000pt" height="400.000000pt" viewBox="0 0 400.000000 400.000000"
 preserveAspectRatio="xMidYMid meet">
<metadata>
Created by potrace 1.11, written by Peter Selinger 2001-2013
</metadata>
<g transform="translate(0.000000,400.000000) scale(0.100000,-0.100000)"
fill="#000000" stroke="none">
<path d="M0 2000 l0 -2000 308 0 308 0 53 458 c59 512 60 520 147 613 68 72
108 92 287 142 87 24 160 47 163 50 3 3 -35 114 -86 248 -50 133 -90 251 -88
263 2 13 12 22 24 24 28 4 531 -248 562 -281 16 -17 51 -111 109 -288 46 -145
90 -267 96 -271 7 -5 53 -7 102 -6 l90 3 52 160 c28 88 66 207 83 265 27 87
39 111 69 140 22 21 137 86 283 160 194 98 249 122 259 113 10 -10 -1 -63 -53
-258 l-65 -245 51 -19 c28 -10 103 -35 166 -56 141 -46 193 -72 247 -121 54
-49 111 -144 118 -198 3 -22 16 -137 30 -253 14 -117 36 -306 50 -420 14 -115
25 -211 25 -215 0 -5 137 -8 305 -8 l305 0 0 2000 0 2000 -2000 0 -2000 0 0
-2000z m1686 1224 c127 -56 258 -96 360 -109 65 -8 157 9 251 46 146 58 148
55 298 -301 64 -151 125 -290 136 -308 24 -42 24 -53 -2 -86 -43 -55 -197
-109 -394 -138 -142 -21 -572 -18 -710 5 -132 22 -277 69 -323 104 -52 40 -59
64 -34 121 12 26 69 182 127 347 115 329 124 345 194 345 21 0 65 -12 97 -26z
m-560 -766 c-49 -70 24 -154 180 -208 180 -63 401 -92 699 -93 438 -1 778 74
879 194 30 35 32 58 11 99 -9 17 -14 30 -11 30 13 0 107 -45 148 -72 163 -104
84 -233 -197 -321 -170 -53 -381 -84 -671 -97 -776 -34 -1420 162 -1232 375
31 36 75 63 153 97 53 23 59 22 41 -4z"/>
</g>
</svg>
